<svg width="25" height="24" viewBox="0 0 25 24" fill="none" xmlns="http://www.w3.org/2000/svg">
<g clip-path="url(#clip0_14191_115280)">
<path d="M17.5 12.9941C19.22 12.9941 20.6404 14.2441 20.9404 15.873H24.5V17.1221H20.9404C20.6404 18.761 19.2199 20 17.5 20C15.7801 20 14.3596 18.751 14.0596 17.1221H0.5V15.873H14.0596C14.3596 14.2341 15.78 12.9941 17.5 12.9941ZM17.5 14.2432C16.41 14.2432 15.48 15.0234 15.29 16.0928L15.2197 16.4922L15.29 16.8916C15.49 17.9609 16.41 18.7412 17.5 18.7412C18.59 18.7412 19.52 17.9609 19.71 16.8916L19.7803 16.4922L19.71 16.0928C19.51 15.0234 18.59 14.2432 17.5 14.2432ZM7.5 4C9.21993 4 10.6404 5.24904 10.9404 6.87793H24.5V8.12695H10.9404C10.6404 9.76593 9.22 11.0059 7.5 11.0059C5.78 11.0059 4.35957 9.75593 4.05957 8.12695H0.5V6.87793H4.05957C4.35964 5.23905 5.78007 4 7.5 4ZM7.5 5.24902C6.41014 5.24902 5.4802 6.02853 5.29004 7.09766L5.21973 7.49805L5.29004 7.89746C5.49004 8.96679 6.41 9.74609 7.5 9.74609C8.59 9.74609 9.51996 8.96679 9.70996 7.89746L9.78027 7.49805L9.70996 7.09766C9.50981 6.02853 8.58986 5.24902 7.5 5.24902Z" fill="black"/>
</g>
<defs>
<clipPath id="clip0_14191_115280">
<rect width="24" height="24" fill="white" transform="translate(0.5)"/>
</clipPath>
</defs>
</svg>
